<?xml version="1.0" standalone="no"?>
<!DOCTYPE svg PUBLIC "-//W3C//DTD SVG 1.1//EN" "http://www.w3.org/Graphics/SVG/1.1/DTD/svg11.dtd" >
<svg xmlns="http://www.w3.org/2000/svg">
<metadata>Generated by IcoMoon</metadata>
<defs>
<font id="icomoon" horiz-adv-x="1024">
<font-face units-per-em="1024" ascent="960" descent="-64" />
<missing-glyph horiz-adv-x="1024" />
<glyph unicode="&#x20;" d="" horiz-adv-x="512" />
<glyph unicode="&#xe037;" d="M426.667 896q78 0 149.167-30.5t122.5-81.833 81.833-122.5 30.5-149.167q0-67-21.833-128.333t-62.167-111.333l242.333-242q12.333-12.333 12.333-30.333 0-18.333-12.167-30.5t-30.5-12.167q-18 0-30.333 12.333l-242 242.333q-50-40.333-111.333-62.167t-128.333-21.833q-78 0-149.167 30.5t-122.5 81.833-81.833 122.5-30.5 149.167 30.5 149.167 81.833 122.5 122.5 81.833 149.167 30.5zM426.667 810.667q-60.667 0-116-23.667t-95.333-63.667-63.667-95.333-23.667-116 23.667-116 63.667-95.333 95.333-63.667 116-23.667 116 23.667 95.333 63.667 63.667 95.333 23.667 116-23.667 116-63.667 95.333-95.333 63.667-116 23.667zM426.667 682.667q17.667 0 30.167-12.5t12.5-30.167v-85.333h85.333q17.667 0 30.167-12.5t12.5-30.167-12.5-30.167-30.167-12.5h-85.333v-85.333q0-17.667-12.5-30.167t-30.167-12.5-30.167 12.5-12.5 30.167v85.333h-85.333q-17.667 0-30.167 12.5t-12.5 30.167 12.5 30.167 30.167 12.5h85.333v85.333q0 17.667 12.5 30.167t30.167 12.5z" />
<glyph unicode="&#xe038;" d="M426.667 896q78 0 149.167-30.5t122.5-81.833 81.833-122.5 30.5-149.167q0-67-21.833-128.333t-62.167-111.333l242.333-242q12.333-12.333 12.333-30.333 0-18.333-12.167-30.5t-30.5-12.167q-18 0-30.333 12.333l-242 242.333q-50-40.333-111.333-62.167t-128.333-21.833q-78 0-149.167 30.5t-122.5 81.833-81.833 122.5-30.5 149.167 30.5 149.167 81.833 122.5 122.5 81.833 149.167 30.5zM426.667 810.667q-60.667 0-116-23.667t-95.333-63.667-63.667-95.333-23.667-116 23.667-116 63.667-95.333 95.333-63.667 116-23.667 116 23.667 95.333 63.667 63.667 95.333 23.667 116-23.667 116-63.667 95.333-95.333 63.667-116 23.667zM298.667 554.667h256q17.667 0 30.167-12.5t12.5-30.167-12.5-30.167-30.167-12.5h-256q-17.667 0-30.167 12.5t-12.5 30.167 12.5 30.167 30.167 12.5z" />
<glyph unicode="&#xe128;" d="M170.667 896h298.667q17.667 0 30.167-12.5t12.5-30.167-12.5-30.167-30.167-12.5h-298.667q-17.667 0-30.167-12.5t-12.5-30.167v-682.667q0-17.667 12.5-30.167t30.167-12.5h682.667q17.667 0 30.167 12.5t12.5 30.167v298.667q0 17.667 12.5 30.167t30.167 12.5 30.167-12.5 12.5-30.167v-298.667q0-53-37.5-90.5t-90.5-37.5h-682.667q-53 0-90.5 37.5t-37.5 90.5v682.667q0 53 37.5 90.5t90.5 37.5zM682.667 896h256q17.667 0 30.167-12.5t12.5-30.167v-256q0-17.667-12.5-30.167t-30.167-12.5-30.167 12.5-12.5 30.167v153l-354-354q-12.333-12.333-30-12.333-18.333 0-30.5 12.167t-12.167 30.5q0 17.667 12.333 30l354 354h-153q-17.667 0-30.167 12.5t-12.5 30.167 12.5 30.167 30.167 12.5z" />
<glyph unicode="&#xe601;" d="M0 896h320v-768h-320zM448 896h320v-768h-320z" horiz-adv-x="768" />
<glyph unicode="&#xf0c9;" d="M0 118.856v73.144q0 14.856 10.856 25.714t25.714 10.856h804.572q14.856 0 25.714-10.856t10.856-25.714v-73.144q0-14.856-10.856-25.714t-25.714-10.856h-804.572q-14.856 0-25.714 10.856t-10.856 25.714zM0 411.428v73.144q0 14.856 10.856 25.714t25.714 10.858h804.572q14.856 0 25.714-10.856t10.856-25.714v-73.142q0-14.856-10.856-25.714t-25.714-10.856h-804.572q-14.856 0-25.714 10.856t-10.856 25.714zM0 704v73.144q0 14.856 10.856 25.714t25.714 10.856h804.572q14.856 0 25.714-10.856t10.856-25.714v-73.144q0-14.856-10.856-25.714t-25.714-10.858h-804.572q-14.856 0-25.714 10.856t-10.856 25.714z" />
<glyph unicode="&#xf0ca;" d="M744.726 773.818l-372.364-279.274-372.364 279.274q0 19.274 13.636 32.908t32.91 13.636h651.636q19.274 0 32.908-13.636t13.636-32.908zM0 690.182l372.364-279.274 372.364 279.274v-381.818q0-19.274-13.636-32.908t-32.908-13.636h-651.636q-19.272 0-32.908 13.636t-13.636 32.908v381.818z" horiz-adv-x="746" />
<glyph unicode="&#xf610;" d="M744.726 866.908v-651.636q0-18.908-13.818-32.726t-32.726-13.818h-186.182v289.454h93.092l15.636 107.272h-108.726v84.364q0 23.274 11.818 35.636t34.726 12.364h69.818v96.726q-31.274 5.092-76.364 5.092-74.908 0-114.364-38t-39.454-103.456v-92.726h-93.092v-107.274h93.092v-289.454h-351.636q-18.908 0-32.726 13.818t-13.818 32.726v651.636q0 18.908 13.818 32.726t32.726 13.818h651.636q18.908 0 32.726-13.818t13.818-32.726z" horiz-adv-x="746" />
<glyph unicode="&#xf611;" d="M744.726 780q-30.544-46.182-76-79.274v-20q0-50.908-12.908-102.364t-37.092-100-62-90.726-84.726-73.636-108.182-49.636-129.272-18.182q-137.818 0-234.544 62.182 16.728-2.544 36.364-2.544 50.908 0 99.636 19.636t89.818 52.726q-49.092 0.364-88.546 30.364t-53.636 75.818q15.272-2.908 28.364-2.908 21.092 0 40.728 5.454-52.728 10.546-87.636 52.546t-34.908 97.274v1.818q32.726-17.818 69.090-18.908-31.636 21.092-50 54.544t-18.364 72q0 37.456 20.728 74.182 57.454-69.818 138.908-110.726t175.636-46q-3.274 14.182-3.274 35.274 0 63.274 44.546 107.818t107.818 44.544q65.092 0 112.364-48 52 10.544 96.364 37.090-17.456-55.272-67.274-84.726 45.456 5.092 88 24.364z" horiz-adv-x="746" />
<glyph unicode="&#xf612;" d="M372.364 804.726q168.728 0 221.818-4.726 76.726-6.544 107.636-30.908 28.726-22.544 37.092-74.544 5.818-37.092 5.818-142.546v-10.908q0-109.456-4.726-145.818-7.636-55.274-34.544-78.908-28.726-25.818-101.092-33.092-53.818-5.818-216.726-5.818h-15.274q-168.728 0-221.818 4.726-76.728 6.544-107.636 30.908-28.728 22.544-37.092 74.544-5.818 37.092-5.818 142.544v10.908q0 109.454 4.728 145.818 7.636 55.274 34.546 78.908 28.728 25.818 101.092 33.092 53.818 5.818 216.726 5.818h15.274zM279.274 401.456l232.726 139.636-232.726 139.636v-279.274z" horiz-adv-x="746" />
<glyph unicode="&#xf613;" d="M389.454 913.456q59.636 0 111.092-20.364t86-54.364 54.182-78.364 19.636-91.636q0-83.274-28.726-150t-81.456-104.908-120-38.182q-34.182 0-63.818 15.274t-41.274 37.092q-24.364-98.182-30.182-117.092-8-30.182-27.454-65.092t-31.092-50.908-18.182-23.636q-2.908-3.274-6.364-2.364t-4.182 4.182q0 0.364-1.272 10.182t-2.364 20.544-1.818 28-0.544 33.274 2 35.274 5.818 35.636l54.182 232.726q-12.728 27.636-12.728 68 0 47.636 23.636 79.092t58.182 31.454q28 0 42.908-18t14.908-46q0-17.090-6.364-41.818t-16.726-57.636-15.092-52.182q-7.636-33.818 13.274-58.364t55.092-24.546q39.636 0 70.726 31.274t47.818 82.908 16.726 113.456q0 72.726-46.908 118.364t-130.544 45.636q-47.274 0-87.636-16.728t-67.092-45.092-41.636-65.274-14.908-77.272q0-50.182 28.364-84.726 5.818-7.274 6.908-11.274t-0.728-12q-1.092-5.818-8.728-34.182-1.818-8.364-7.636-11.274t-13.818 0q-42.908 18.182-65.090 62.182t-22.182 101.456q0 37.090 12 74.364t37.092 72.182 60.364 61.636 86 42.908 109.636 16.182z" horiz-adv-x="746" />
<glyph unicode="&#xf614;" d="M605.092 494.546h93.092q18.962 0 32.754-13.79t13.792-32.754v-186.182q0-18.962-13.792-32.754t-32.754-13.792h-232.726q-18.964 0-32.754 13.792t-13.79 32.754v232.726q0 163.77 85.764 268.068t224.538 104.296q6.896 0 11.206-4.31t4.31-11.204v-140.498q0-13.79-13.792-15.514-60.336-4.31-93.092-56.026t-32.754-144.808zM186.182 494.546h93.090q18.964 0 32.754-13.79t13.79-32.754v-186.182q0-18.962-13.79-32.754t-32.754-13.792h-232.728q-18.964 0-32.754 13.792t-13.792 32.754v232.726q0 163.77 85.764 268.068t224.54 104.296q6.896 0 11.204-4.31t4.31-11.204v-140.498q0-13.79-13.79-15.514-60.336-4.31-93.092-56.026t-32.754-144.808z" horiz-adv-x="746" />
<glyph unicode="&#xf615;" d="M372.364 913.456q154.29 0 263.328-109.038t109.038-263.326-109.038-263.326-263.326-109.038-263.326 109.038-109.038 263.326 109.038 263.326 263.326 109.038zM418.908 308.364v263.758h-93.092v-263.758h93.092zM372.364 649.698q25.858 0 43.96 18.1t18.1 43.96-18.1 43.96-43.96 18.1-43.96-18.1-18.1-43.96 18.1-43.96 43.96-18.1z" horiz-adv-x="746" />
<glyph unicode="&#xf616;" d="M713.698 541.092q0-141.36-99.986-241.346t-241.346-99.986q-131.878 0-229.278 88.78h-0.862v0.862q-4.31 4.31-4.31 10.342 0 6.896 3.448 10.342l67.232 67.232q10.342 10.342 20.688 0 62.062-53.442 143.084-53.442 89.644 0 153.428 63.784t63.784 153.428-63.784 153.428-153.428 63.784q-81.886 0-142.222-53.44l91.366-90.506q6.896-6.896 3.448-17.238-4.31-9.48-14.654-9.48h-294.788q-6.896 0-11.206 4.31t-4.31 11.204v294.788q0 10.342 9.482 14.654 10.342 3.448 17.24-3.448l115.502-116.364q98.264 89.644 230.14 89.644 141.36 0 241.346-99.986t99.986-241.348z" horiz-adv-x="746" />
<glyph unicode="&#xf617;" d="M744.726 897.938v-294.788q0-6.896-4.31-11.206t-11.206-4.31h-294.788q-10.344 0-14.654 9.48-3.448 10.344 3.448 17.24l91.366 90.504q-60.336 53.442-142.222 53.442-89.644 0-153.428-63.784t-63.784-153.428 63.784-153.428 153.428-63.784q80.162 0 143.084 53.442 10.342 10.342 20.688 0l66.37-66.37v-0.862q4.31-3.448 4.31-10.342 0-6.034-4.31-10.342 0-0.862-0.862-0.862-97.402-88.78-229.278-88.78-141.36 0-241.348 99.986t-99.986 241.346 99.986 241.346 241.348 99.986q131.88 0 230.14-89.642l115.502 116.364q6.896 6.896 17.24 3.448 9.48-4.31 9.48-14.654z" horiz-adv-x="746" />
<glyph unicode="&#xf618;" d="M743.866 535.058q-4.31-9.48-14.654-9.48h-77.576v-341.334q0-6.896-4.31-11.206t-11.206-4.31h-155.152q-6.896 0-11.204 4.31t-4.31 11.206v263.758h-186.182v-263.758q0-6.896-4.31-11.206t-11.204-4.31h-155.152q-6.896 0-11.204 4.31t-4.31 11.206v341.334h-77.576q-10.342 0-14.654 9.48-2.586 9.48 3.448 17.238l356.848 356.848q11.204 11.204 22.412 0l356.848-356.848q6.034-7.758 3.448-17.238z" horiz-adv-x="746" />
<glyph unicode="&#xf619;" d="M694.734 350.6q4.31-6.034 4.31-11.206t-4.31-11.206l-109.468-109.468q-6.034-4.31-11.206-4.31t-11.206 4.31l-190.492 190.492-190.492-190.492q-6.034-4.31-11.206-4.31t-11.206 4.31l-109.468 109.468q-4.31 6.034-4.31 11.206t4.31 11.206l190.492 190.492-190.492 190.492q-4.31 6.034-4.31 11.206t4.31 11.206l109.468 109.468q6.034 4.31 11.206 4.31t11.206-4.31l190.492-190.492 190.492 190.492q6.034 4.31 11.206 4.31t11.206-4.31l109.468-109.468q4.31-6.034 4.31-11.206t-4.31-11.204l-190.492-190.492z" horiz-adv-x="746" />
<glyph unicode="&#xf61a;" d="M248.242 913.456q5.172 0 11.206-4.31l356.848-356.848q11.206-11.206 0-22.412l-356.848-356.848q-11.206-11.206-22.412 0l-108.606 108.606q-11.204 11.206 0 22.412l237.038 237.038-237.038 237.038q-11.204 11.204 0 22.41l108.606 108.606q6.034 4.31 11.206 4.31z" horiz-adv-x="746" />
<glyph unicode="&#xf61b;" d="M496.486 168.726q-5.172 0-11.204 4.31l-356.848 356.848q-11.204 11.204 0 22.41l356.848 356.848q11.204 11.204 22.412 0l108.606-108.606q11.206-11.206 0-22.412l-237.9-237.038 237.9-237.038q11.206-11.206 0-22.412l-108.606-108.606q-6.034-4.31-11.204-4.31z" horiz-adv-x="746" />
<glyph unicode="&#xf61c;" d="M744.726 875.528v-427.528q0-68.094-46.976-118.52t-115.932-63.354q-67.232-13.792-115.072 13.36t-47.838 78.87 48.27 99.556 114.64 60.768q36.202 6.896 62.924 6.896h22.412v186.182l-341.334-77.576v-279.274q0-68.094-46.976-118.52t-115.932-63.354q-67.232-13.792-115.070 13.36t-47.838 78.87 48.268 99.556 114.64 60.768q36.202 6.896 62.924 6.896h22.412v334.438q0 18.962 13.36 35.772t32.322 21.118l405.118 88.78q18.962 4.31 32.322-6.896t13.36-30.168z" horiz-adv-x="746" />
<glyph unicode="&#xf61d;" d="M740.418 700.552l-449.94-449.938q-6.034-4.31-11.204-4.31t-11.204 4.31l-263.758 263.758q-11.206 11.204 0 22.41l108.606 108.606q11.204 11.206 22.412 0l143.946-144.808 330.128 330.99q11.206 11.206 22.412 0l108.606-108.606q11.206-11.206 0-22.41z" horiz-adv-x="746" />
<glyph unicode="&#xf61e;" d="M399.084 893.63l341.334-341.332q4.31-6.034 4.31-11.206t-4.31-11.206l-341.334-341.332q-6.896-6.896-17.238-3.448-9.48 4.31-9.48 14.654v201.698h-356.848q-6.896 0-11.206 4.31t-4.31 11.206v248.242q0 6.896 4.31 11.204t11.206 4.31h356.848v201.698q0 10.342 9.48 14.654 10.344 3.448 17.238-3.448z" horiz-adv-x="746" />
<glyph unicode="&#xf61f;" d="M393.912 431.624l-131.016-131.88 104.296-104.296q5.172-3.448 5.172-11.206 0-6.896-4.31-11.206t-11.204-4.31h-341.334q-6.896 0-11.206 4.31t-4.31 11.206v341.334q0 10.342 9.482 14.654 10.342 3.448 17.24-3.448l104.296-105.158 131.878 131.018q11.204 11.204 21.548 0l109.468-109.468q5.172-3.448 5.172-11.206 0-6.034-5.172-10.342zM744.726 897.938v-341.332q0-10.344-9.48-14.654-1.724-0.862-6.034-0.862-5.172 0-11.206 4.31l-104.296 105.158-131.88-131.88q-4.31-4.31-10.344-4.31-6.896 0-11.204 4.31l-110.33 110.33q-10.344 10.342 0 21.548l131.878 131.878-105.158 104.296q-6.896 6.896-3.448 17.24 4.31 9.48 14.654 9.48h341.334q6.896 0 11.206-4.31t4.31-11.204z" horiz-adv-x="746" />
<glyph unicode="&#xf620;" d="M345.642 188.552l-341.334 341.332q-4.31 6.034-4.31 11.206t4.31 11.206l341.334 341.332q6.896 6.896 17.238 3.448 9.48-4.31 9.48-14.654v-201.696h356.848q6.896 0 11.206-4.31t4.31-11.206v-248.242q0-6.896-4.31-11.206t-11.206-4.31h-356.848v-201.698q0-10.342-9.48-14.654-10.344-3.448-17.238 3.448z" horiz-adv-x="746" />
<glyph unicode="&#xf621;" d="M465.454 913.456q115.502 0 197.388-81.886t81.886-197.386-81.886-197.386-197.388-81.886q-81.886 0-149.118 43.098l-210.316-211.178q-18.1-18.1-43.96-18.1t-43.96 18.1-18.1 43.96 18.1 43.96l211.178 210.316q-43.098 67.232-43.098 149.118 0 115.502 81.886 197.386t197.388 81.886zM620.606 587.636v93.092h-108.606v108.606h-93.092v-108.606h-108.606v-93.092h108.606v-108.606h93.092v108.606h108.606z" horiz-adv-x="746" />
<glyph unicode="&#xf622;" d="M558.544 773.818v-77.576h-341.334q-38.788 0-65.938-27.152t-27.152-65.938v-201.698h-77.576q-18.964 0-32.754 13.792t-13.792 32.754v325.818q0 18.962 13.792 32.754t32.754 13.79h465.454q18.964 0 32.754-13.79t13.792-32.754zM744.726 587.636v-279.272q0-18.962-13.792-32.754t-32.754-13.792h-465.454q-18.962 0-32.754 13.792t-13.79 32.754v294.788q0 12.928 9.050 21.98t21.98 9.050h480.97q18.962 0 32.754-13.79t13.792-32.754z" horiz-adv-x="746" />
<glyph unicode="&#xf623;" d="M744.726 896.216l-93.092-713.698q-1.724-8.62-8.62-12.068-6.896-4.31-13.792 0l-237.038 118.088-85.332-113.778q-4.31-6.034-12.068-6.034-3.448 0-5.172 0.862-10.344 2.586-10.344 14.654v155.152q0 6.034 3.448 9.48l338.748 436.148-440.458-380.12q-4.31-3.448-10.342-3.448-3.448 0-6.896 1.724l-155.152 77.576q-8.62 4.31-8.62 12.928 0 9.48 7.758 14.654l713.698 403.394q8.62 4.31 16.376-0.862 8.62-5.172 6.896-14.654z" horiz-adv-x="746" />
<glyph unicode="&#xf624;" d="M737.832 831.568q6.896-4.31 6.896-12.068v-527.514q0-12.068-11.206-14.654l-232.726-76.714q-0.862-0.862-4.31-0.862-4.31 0-6.034 0.862l-243.070 90.504-227.556-75.852q-6.896-2.586-13.792 1.724-6.034 6.034-6.034 12.928v339.608q9.48 7.758 32.754 21.548l-32.754 53.442v112.916q0 10.344 10.342 14.654l232.728 78.438q5.172 0.862 10.342 0l243.070-92.228 227.556 75.852q8.62 2.586 13.792-2.586zM83.608 617.806q42.236 17.238 82.746 24.996l-11.206 61.198q-50.854-9.48-95.678-29.306zM307.716 641.076l13.79 60.336q-49.992 10.342-99.986 9.48l1.724-62.060q43.96 0 84.472-7.758zM435.286 582.464l37.926 49.132q-41.374 31.892-87.918 49.992l-23.274-56.888q42.236-18.102 73.266-42.236zM477.522 544.538q14.654-16.376 27.152-33.186t17.24-25.428 4.74-9.48l28.444 13.79 27.582 12.928q-21.548 43.098-59.476 83.608zM605.092 323.018q25.86 0 43.96 18.1t18.1 43.96-18.1 43.96-43.96 18.1-43.96-18.1-18.1-43.96 18.1-43.96 43.96-18.1z" horiz-adv-x="746" />
<glyph unicode="&#xf625;" d="M372.364 913.456q102.572 0 175.406-72.836t72.836-175.408q0-64.646-31.892-121.534l-202.558-367.192q-4.31-7.758-13.79-7.758t-13.79 7.758l-202.558 367.192q-31.892 54.302-31.892 121.534 0 102.572 72.836 175.408t175.408 72.834zM372.364 572.12q38.788 0 65.94 27.152t27.152 65.94-27.152 65.938-65.938 27.152-65.938-27.152-27.152-65.94 27.152-65.938 65.938-27.152z" horiz-adv-x="746" />
<glyph unicode="&#xf626;" d="M0 897.938q0 6.896 4.31 11.206t11.206 4.31h155.152q6.896 0 11.206-4.31t4.31-11.206v-155.152q0-6.896-4.31-11.206t-11.206-4.31h-155.152q-6.896 0-11.206 4.31t-4.31 11.206v155.152zM279.274 897.938q0 6.896 4.31 11.206t11.204 4.31h155.152q6.896 0 11.204-4.31t4.31-11.206v-155.152q0-6.896-4.31-11.206t-11.204-4.31h-155.152q-6.896 0-11.204 4.31t-4.31 11.206v155.152zM558.544 897.938q0 6.896 4.31 11.206t11.206 4.31h155.152q6.896 0 11.206-4.31t4.31-11.206v-155.152q0-6.896-4.31-11.206t-11.206-4.31h-155.152q-6.896 0-11.206 4.31t-4.31 11.206v155.152zM0 618.666q0 6.896 4.31 11.206t11.206 4.31h155.152q6.896 0 11.206-4.31t4.31-11.206v-155.152q0-6.896-4.31-11.204t-11.206-4.31h-155.152q-6.896 0-11.206 4.31t-4.31 11.204v155.152zM279.274 618.666q0 6.896 4.31 11.206t11.204 4.31h155.152q6.896 0 11.204-4.31t4.31-11.206v-155.152q0-6.896-4.31-11.204t-11.204-4.31h-155.152q-6.896 0-11.204 4.31t-4.31 11.204v155.152zM558.544 618.666q0 6.896 4.31 11.206t11.206 4.31h155.152q6.896 0 11.206-4.31t4.31-11.206v-155.152q0-6.896-4.31-11.204t-11.206-4.31h-155.152q-6.896 0-11.206 4.31t-4.31 11.204v155.152zM0 339.394q0 6.896 4.31 11.206t11.206 4.31h155.152q6.896 0 11.206-4.31t4.31-11.206v-155.152q0-6.896-4.31-11.206t-11.206-4.31h-155.152q-6.896 0-11.206 4.31t-4.31 11.206v155.152zM279.274 339.394q0 6.896 4.31 11.206t11.204 4.31h155.152q6.896 0 11.204-4.31t4.31-11.206v-155.152q0-6.896-4.31-11.206t-11.204-4.31h-155.152q-6.896 0-11.204 4.31t-4.31 11.206v155.152zM558.544 339.394q0 6.896 4.31 11.206t11.206 4.31h155.152q6.896 0 11.206-4.31t4.31-11.206v-155.152q0-6.896-4.31-11.206t-11.206-4.31h-155.152q-6.896 0-11.206 4.31t-4.31 11.206v155.152z" horiz-adv-x="746" />
<glyph unicode="&#xf627;" d="M434.424 851.394v-108.606q0-25.86-18.1-43.96t-43.96-18.1-43.96 18.1-18.1 43.96v108.606q0 25.86 18.1 43.96t43.96 18.1 43.96-18.1 18.1-43.96zM434.424 339.394v-108.606q0-25.86-18.1-43.96t-43.96-18.1-43.96 18.1-18.1 43.96v108.606q0 25.86 18.1 43.96t43.96 18.1 43.96-18.1 18.1-43.96zM232.728 541.092q0-25.86-18.1-43.96t-43.96-18.1h-108.606q-25.86 0-43.96 18.1t-18.1 43.96 18.1 43.96 43.96 18.102h108.606q25.86 0 43.96-18.102t18.1-43.96zM744.726 541.092q0-25.86-18.1-43.96t-43.96-18.1h-108.606q-25.86 0-43.96 18.1t-18.1 43.96 18.1 43.96 43.96 18.102h108.606q25.86 0 43.96-18.102t18.1-43.96zM273.238 640.214q-18.1-18.962-43.528-18.962t-43.528 18.962l-77.576 76.714q-18.1 18.1-18.1 43.528t18.1 43.528q18.962 18.962 44.39 18.962t43.528-18.962l76.714-76.714q18.964-18.1 18.964-43.528t-18.964-43.528zM635.26 277.332q-18.1-18.1-43.528-18.1t-43.528 18.1l-76.714 77.576q-18.964 18.1-18.964 43.528t18.964 43.528q18.1 18.964 43.53 18.964t43.528-18.964l76.714-76.714q18.962-18.1 18.962-43.528t-18.962-44.39zM635.26 716.928l-76.714-76.714q-18.1-18.964-43.528-18.964t-43.528 18.964q-18.964 18.1-18.964 43.528t18.964 43.528l76.714 76.714q18.1 18.962 43.528 18.962t43.528-18.962q18.962-18.102 18.962-43.528t-18.962-43.528zM273.238 354.908l-76.714-77.576q-18.1-18.1-43.528-18.1t-44.39 18.1q-18.1 18.962-18.1 44.39t18.1 43.528l77.576 76.714q18.1 18.964 43.528 18.964t43.528-18.964q18.964-18.1 18.964-43.528t-18.964-43.528z" horiz-adv-x="746" />
<glyph unicode="&#xf628;" d="M0 416.97q0 5.172 4.31 11.206l356.848 356.848q11.204 11.204 22.412 0l356.848-356.848q11.206-11.206 0-22.41l-108.606-108.606q-11.206-11.206-22.41 0l-237.038 237.038-237.038-237.038q-11.204-11.206-22.412 0l-108.606 108.606q-4.31 6.034-4.31 11.206z" horiz-adv-x="746" />
<glyph unicode="&#xf629;" d="M744.726 564.364q0-125.846-109.038-214.196t-263.326-88.35q-30.168 0-62.924 4.31-97.402-97.4-200.836-97.4-10.344 0-14.654 9.48-3.448 10.342 3.448 17.24 5.172 5.172 13.36 15.514t23.274 42.236 19.394 66.37q-71.542 42.236-112.484 106.452t-40.942 138.342q0 125.846 109.038 214.196t263.326 88.35 263.326-88.35 109.038-214.196z" horiz-adv-x="746" />
<glyph unicode="&#xf62a;" d="M698.182 913.456q18.962 0 32.754-13.792t13.792-32.754v-651.636q0-18.962-13.792-32.754t-32.754-13.792h-651.636q-18.964 0-32.754 13.792t-13.792 32.754v651.636q0 18.962 13.792 32.754t32.754 13.79h62.062v-93.090q0-18.964 13.79-32.754t32.754-13.792 32.754 13.792 13.79 32.754v93.090h341.334v-93.090q0-18.964 13.792-32.754t32.754-13.792 32.754 13.792 13.792 32.754v93.090h62.062zM232.728 277.332v124.12h-124.12v-124.12h124.12zM232.728 494.546v124.12h-124.12v-124.12h124.12zM434.424 277.332v124.12h-124.12v-124.12h124.12zM434.424 494.546v124.12h-124.12v-124.12h124.12zM636.12 277.332v124.12h-124.12v-124.12h124.12zM636.12 494.546v124.12h-124.12v-124.12h124.12z" horiz-adv-x="746" />
<glyph unicode="&#xf62b;" d="M729.212 866.908q6.896 0 11.206-4.31t4.31-11.206v-543.030q0-38.788-27.152-65.938t-65.938-27.152h-558.544q-38.788 0-65.938 27.152t-27.152 65.938v449.94q0 6.896 4.31 11.204t11.206 4.31h62.062v-449.94q0-12.928 9.052-21.98t21.98-9.052 21.98 9.052 9.050 21.98v527.514q0 6.896 4.31 11.206t11.206 4.31h574.062zM651.636 587.636v139.636h-279.274v-139.636h279.274z" horiz-adv-x="746" />
<glyph unicode="&#xf62c;" d="M698.182 727.274q18.962 0 32.754-13.792t13.792-32.754v-372.364q0-18.962-13.792-32.754t-32.754-13.792h-651.636q-18.964 0-32.754 13.792t-13.792 32.754v372.364q0 18.962 13.792 32.754t32.754 13.792h139.636l22.412 68.094q4.31 10.344 13.79 17.67t20.688 7.326h258.586q10.342 0 20.256-7.326t13.36-17.67l23.274-68.094h139.636zM372.364 354.908q57.75 0 98.694 40.942t40.942 98.694-40.942 98.694-98.694 40.942-98.694-40.942-40.942-98.694q0-58.612 40.512-99.124t99.126-40.512z" horiz-adv-x="746" />
<glyph unicode="&#xf62d;" d="M744.726 758.302v-434.424q0-10.342-9.48-14.654-1.724-0.862-6.034-0.862-5.172 0-11.206 4.31l-159.462 160.322v-118.088q0-18.962-13.792-32.754t-32.754-13.792h-465.454q-18.964 0-32.754 13.792t-13.792 32.754v372.364q0 18.964 13.792 32.754t32.754 13.792h465.454q18.962 0 32.754-13.792t13.792-32.754v-118.088l159.462 160.322q6.896 6.896 17.24 3.448 9.48-4.31 9.48-14.652z" horiz-adv-x="746" />
<glyph unicode="&#xf62e;" d="M512 835.88v-589.576q0-10.342-9.48-14.654-10.344-3.448-17.238 3.448l-166.358 166.356h-117.226q-6.896 0-11.206 4.31t-4.31 11.206v248.242q0 6.896 4.31 11.206t11.206 4.31h117.226l166.356 166.356q6.896 6.896 17.238 3.448 9.48-4.31 9.48-14.652z" horiz-adv-x="746" />
<glyph unicode="&#xf62f;" d="M564.578 294.572q-11.206-10.342-21.548 0l-43.96 43.098q-10.344 12.068 0 22.41 74.99 74.99 74.99 181.010t-74.99 181.010q-11.204 10.342 0 21.548l43.96 43.96q10.342 10.342 21.548 0 67.232-67.232 90.936-156.876t0-179.286-90.936-156.876zM395.636 835.88v-589.576q0-10.342-9.48-14.654-10.344-3.448-17.238 3.448l-166.356 166.356h-117.226q-6.034 0-10.774 4.31t-4.74 11.206v248.242q0 6.896 4.74 11.206t10.774 4.31h117.226l166.356 166.356q6.896 6.896 17.238 3.448 9.48-4.31 9.48-14.652z" horiz-adv-x="746" />
<glyph unicode="&#xf630;" d="M570.614 173.9l-43.96 43.098q-10.342 12.068 0 22.41 81.886 81.886 110.76 191.784t0 219.798-110.76 191.784q-11.206 10.344 0 21.548l43.96 43.96q10.342 10.344 21.548 0 99.986-99.986 135.758-233.588t0-267.206-135.758-233.59q-11.206-10.342-21.548 0zM471.488 294.572q-11.204-10.342-21.548 0l-43.96 43.098q-10.344 12.068 0 22.41 74.99 74.99 74.99 181.010t-74.99 181.010q-11.204 10.342 0 21.548l43.96 43.96q10.344 10.342 21.548 0 67.232-67.232 90.936-156.876t0-179.286-90.936-156.876zM302.546 835.88v-589.576q0-10.342-9.48-14.654-10.344-3.448-17.238 3.448l-166.356 166.356h-117.226q-6.034 0-10.774 4.31t-4.74 11.206v248.242q0 6.896 4.74 11.206t10.774 4.31h117.226l166.356 166.356q6.896 6.896 17.238 3.448 9.48-4.31 9.48-14.652z" horiz-adv-x="746" />
<glyph unicode="&#xf631;" d="M465.454 913.456q115.502 0 197.388-81.886t81.886-197.386-81.886-197.386-197.388-81.886q-81.886 0-149.118 43.098l-210.316-211.178q-18.1-18.1-43.96-18.1t-43.96 18.1-18.1 43.96 18.1 43.96l211.178 210.316q-43.098 67.232-43.098 149.118 0 115.502 81.886 197.386t197.388 81.886zM465.454 448q76.714 0 131.448 54.734t54.734 131.448-54.734 131.448-131.448 54.734-131.448-54.734-54.734-131.448 54.734-131.448 131.448-54.734z" horiz-adv-x="746" />
<glyph unicode="&#xf632;" d="M558.544 866.908v-682.668q0-10.342-9.48-14.654-1.724-0.862-6.034-0.862-5.172 0-11.206 4.31l-159.462 159.462-159.462-159.462q-6.896-6.896-17.24-3.448-9.48 4.31-9.48 14.654v682.668q0 18.962 13.79 32.754t32.754 13.79h279.274q18.962 0 32.754-13.79t13.792-32.754z" horiz-adv-x="746" />
<glyph unicode="&#xf633;" d="M685.254 568.674l-105.158-105.158q5.172 59.476-15.514 115.502l55.164 56.026q31.892 31.892 31.892 76.714t-31.892 76.714-76.714 31.892-76.714-31.892l-116.364-115.502q-31.892-31.892-31.892-76.714t31.892-77.576q13.79-13.79 13.79-32.754t-13.79-32.754-32.754-13.792-32.754 13.79q-58.612 59.476-58.612 143.084t58.612 142.222l115.502 115.502q59.476 59.474 143.084 59.474t142.222-59.474q59.476-58.614 59.476-142.222t-59.476-143.084zM460.284 343.704l-116.364-116.364q-58.612-58.614-142.222-58.614t-143.084 58.614q-58.612 59.476-58.612 143.084t58.612 142.222l106.020 106.020q-5.172-60.336 15.514-116.364l-55.164-55.164q-31.892-31.892-31.892-76.714t31.892-76.714 76.714-31.892 76.714 31.892l115.502 115.502q31.892 31.892 31.892 76.714t-31.892 76.714q-13.79 13.792-13.79 33.186t13.79 33.184 33.186 13.79 33.186-13.79q58.612-59.476 58.612-143.084t-58.612-142.222z" horiz-adv-x="746" />
</font>
</defs>
</svg>
