<?xml version="1.0" encoding="UTF-8" standalone="no"?>
<svg width="16px" height="16px" viewBox="0 0 16 16" version="1.1" xmlns="http://www.w3.org/2000/svg" xmlns:xlink="http://www.w3.org/1999/xlink" xmlns:sketch="http://www.bohemiancoding.com/sketch/ns">
    <!-- Generator: Sketch 3.5.2 (25235) - http://www.bohemiancoding.com/sketch -->
    <title>earth205</title>
    <desc>Created with Sketch.</desc>
    <defs>
        <path id="path-1" d="M0.06,0.04 L16,0.04 L16,16 L0.06,16 L0.06,0.04 Z"></path>
    </defs>
    <g id="Welcome" stroke="none" stroke-width="1" fill="none" fill-rule="evenodd" sketch:type="MSPage">
        <g id="Mobile-header-1" sketch:type="MSArtboardGroup" transform="translate(-134.000000, -95.000000)">
            <g id="earth205" sketch:type="MSLayerGroup" transform="translate(134.000000, 95.000000)">
                <mask id="mask-2" sketch:name="Clip 2" fill="white">
                    <use xlink:href="#path-1"></use>
                </mask>
                <g id="Clip-2"></g>
                <path d="M8,0 C3.602,0 0,3.602 0,8 C0,12.398 3.602,16 8,16 C12.398,16 16,12.398 16,8 C16,3.602 12.398,0 8,0 L8,0 Z M13.52,4.801 L11.199,4.801 C10.961,3.762 10.559,2.879 10.078,1.922 C11.52,2.48 12.801,3.441 13.52,4.801 L13.52,4.801 Z M8,1.602 C8.641,2.559 9.199,3.602 9.52,4.801 L6.48,4.801 C6.801,3.68 7.359,2.559 8,1.602 L8,1.602 Z M1.84,9.602 C1.68,9.121 1.602,8.559 1.602,8 C1.602,7.441 1.68,6.879 1.84,6.398 L4.559,6.398 C4.48,6.961 4.48,7.441 4.48,8 C4.48,8.559 4.559,9.039 4.559,9.602 L1.84,9.602 Z M2.48,11.199 L4.801,11.199 C5.039,12.238 5.441,13.121 5.922,14.078 C4.48,13.52 3.199,12.559 2.48,11.199 L2.48,11.199 Z M4.801,4.801 L2.48,4.801 C3.281,3.441 4.48,2.48 5.922,1.922 C5.441,2.879 5.039,3.762 4.801,4.801 L4.801,4.801 Z M8,14.398 C7.359,13.441 6.801,12.398 6.48,11.199 L9.52,11.199 C9.199,12.32 8.641,13.441 8,14.398 L8,14.398 Z M9.84,9.602 L6.16,9.602 C6.078,9.039 6,8.559 6,8 C6,7.441 6.078,6.961 6.16,6.398 L9.922,6.398 C10,6.961 10.078,7.441 10.078,8 C10.078,8.559 9.922,9.039 9.84,9.602 L9.84,9.602 Z M10.078,14.078 C10.559,13.199 10.961,12.238 11.199,11.199 L13.52,11.199 C12.801,12.559 11.52,13.52 10.078,14.078 L10.078,14.078 Z M11.52,9.602 C11.602,9.039 11.602,8.559 11.602,8 C11.602,7.441 11.52,6.961 11.52,6.398 L14.238,6.398 C14.398,6.879 14.48,7.441 14.48,8 C14.48,8.559 14.398,9.121 14.238,9.602 L11.52,9.602 Z" id="Fill-1" fill="#FFFFFF" sketch:type="MSShapeGroup" mask="url(#mask-2)"></path>
            </g>
        </g>
    </g>
</svg>