<?xml version="1.0"?>
<svg version="1.1" xmlns="http://www.w3.org/2000/svg" xmlns:xlink="http://www.w3.org/1999/xlink" width="16" height="16">
    <desc iVinci="yes" version="4.6" gridStep="20" showGrid="no" snapToGrid="no" codePlatform="0"/>
    <g id="Layer1" name="Layer 1" opacity="1">
        <g id="Shape1">
            <desc shapeID="1" type="0" basicInfo-basicType="0" basicInfo-roundedRectRadius="12" basicInfo-polygonSides="6" basicInfo-starPoints="5" bounding="rect(-7.97,-7.98,15.94,15.96)" text="" font-familyName="" font-pixelSize="20" font-bold="0" font-underline="0" font-alignment="1" strokeStyle="0" markerStart="0" markerEnd="0" shadowEnabled="0" shadowOffsetX="0" shadowOffsetY="2" shadowBlur="4" shadowOpacity="160" blurEnabled="0" blurRadius="4" transform="matrix(1,0,0,1,-7.97,-112.98)" pers-center="0,0" pers-size="0,0" pers-start="0,0" pers-end="0,0" locked="0" mesh="" flag=""/>
            <path id="shapePath1" d="M-15.94,-120.96 L0,-120.96 L0,-105 L-15.94,-105 L-15.94,-120.96 Z" style="stroke:none;fill:none;"/>
        </g>
        <g id="Shape2">
            <desc shapeID="2" type="0" basicInfo-basicType="0" basicInfo-roundedRectRadius="12" basicInfo-polygonSides="6" basicInfo-starPoints="5" bounding="rect(-8,-8,16,16)" text="" font-familyName="" font-pixelSize="20" font-bold="0" font-underline="0" font-alignment="1" strokeStyle="0" markerStart="0" markerEnd="0" shadowEnabled="0" shadowOffsetX="0" shadowOffsetY="2" shadowBlur="4" shadowOpacity="160" blurEnabled="0" blurRadius="4" transform="matrix(1,0,0,1,8,8)" pers-center="0,0" pers-size="0,0" pers-start="0,0" pers-end="0,0" locked="0" mesh="" flag=""/>
            <path id="shapePath2" d="M8,0 C3.602,0 0,3.602 0,8 C0,12.398 3.602,16 8,16 C12.398,16 16,12.398 16,8 C16,3.602 12.398,0 8,0 M13.52,4.801 L11.199,4.801 C10.961,3.762 10.559,2.879 10.078,1.922 C11.52,2.48 12.801,3.441 13.52,4.801 M8,1.602 C8.641,2.559 9.199,3.602 9.52,4.801 L6.48,4.801 C6.801,3.68 7.359,2.559 8,1.602 M1.84,9.602 C1.68,9.121 1.602,8.559 1.602,8 C1.602,7.441 1.68,6.879 1.84,6.398 L4.559,6.398 C4.48,6.961 4.48,7.441 4.48,8 C4.48,8.559 4.559,9.039 4.559,9.602 L1.84,9.602 M2.48,11.199 L4.801,11.199 C5.039,12.238 5.441,13.121 5.922,14.078 C4.48,13.52 3.199,12.559 2.48,11.199 M4.801,4.801 L2.48,4.801 C3.281,3.441 4.48,2.48 5.922,1.922 C5.441,2.879 5.039,3.762 4.801,4.801 M8,14.398 C7.359,13.441 6.801,12.398 6.48,11.199 L9.52,11.199 C9.199,12.32 8.641,13.441 8,14.398 M9.84,9.602 L6.16,9.602 C6.078,9.039 6,8.559 6,8 C6,7.441 6.078,6.961 6.16,6.398 L9.922,6.398 C10,6.961 10.078,7.441 10.078,8 C10.078,8.559 9.922,9.039 9.84,9.602 M10.078,14.078 C10.559,13.199 10.961,12.238 11.199,11.199 L13.52,11.199 C12.801,12.559 11.52,13.52 10.078,14.078 M11.52,9.602 C11.602,9.039 11.602,8.559 11.602,8 C11.602,7.441 11.52,6.961 11.52,6.398 L14.238,6.398 C14.398,6.879 14.48,7.441 14.48,8 C14.48,8.559 14.398,9.121 14.238,9.602 L11.52,9.602 Z" style="stroke:none;fill-rule:evenodd;fill:#000000;fill-opacity:1;"/>
        </g>
    </g>
</svg>
